/* XPM */
static const char* ico_xpm[] = {
"32 32 155 2",
"  	c None",
". 	c #777777",
"+ 	c #8D8D8D",
"@ 	c #B3B3B3",
"# 	c #C8C8C8",
"$ 	c #D3D3D3",
"% 	c #D4D4D4",
"& 	c #D5D5D5",
"* 	c #D7D7D7",
"= 	c #D8D8D8",
"- 	c #D9D9D9",
"; 	c #DADADA",
"> 	c #DDDDDD",
", 	c #DEDEDE",
"' 	c #DFDFDF",
") 	c #E0E0E0",
"! 	c #DCDCDC",
"~ 	c #D6D6D6",
"{ 	c #C9C9C9",
"] 	c #C7C7C7",
"^ 	c #D2D2D2",
"/ 	c #C0C0C0",
"( 	c #A8A8A8",
"_ 	c #B2B2B2",
": 	c #767676",
"< 	c #CDCDCD",
"[ 	c #717171",
"} 	c #2A2A2A",
"| 	c #232323",
"1 	c #787878",
"2 	c #6E6E6E",
"3 	c #1A1A1A",
"4 	c #020202",
"5 	c #090909",
"6 	c #0A0A0A",
"7 	c #1B1B1B",
"8 	c #ACACAC",
"9 	c #242424",
"0 	c #010101",
"a 	c #121212",
"b 	c #2B2B2B",
"c 	c #2D2D2D",
"d 	c #272727",
"e 	c #808080",
"f 	c #181818",
"g 	c #080808",
"h 	c #2C2C2C",
"i 	c #7E7E7E",
"j 	c #171717",
"k 	c #151515",
"l 	c #757575",
"m 	c #D1D1D1",
"n 	c #C6C6C6",
"o 	c #747474",
"p 	c #C5C5C5",
"q 	c #7D7D7D",
"r 	c #292929",
"s 	c #3D3D3D",
"t 	c #414141",
"u 	c #797979",
"v 	c #262626",
"w 	c #B4B4B4",
"x 	c #E4E4E4",
"y 	c #D0D0D0",
"z 	c #C4C4C4",
"A 	c #7C7C7C",
"B 	c #141414",
"C 	c #252525",
"D 	c #1E1E1E",
"E 	c #5D5D5D",
"F 	c #1F1F1F",
"G 	c #222222",
"H 	c #E3E3E3",
"I 	c #CFCFCF",
"J 	c #C3C3C3",
"K 	c #282828",
"L 	c #202020",
"M 	c #818181",
"N 	c #E2E2E2",
"O 	c #999999",
"P 	c #B1B1B1",
"Q 	c #737373",
"R 	c #CECECE",
"S 	c #C2C2C2",
"T 	c #7B7B7B",
"U 	c #131313",
"V 	c #848484",
"W 	c #E1E1E1",
"X 	c #9E9E9E",
"Y 	c #C1C1C1",
"Z 	c #5E5E5E",
"` 	c #DBDBDB",
" .	c #727272",
"..	c #7A7A7A",
"+.	c #585858",
"@.	c #CCCCCC",
"#.	c #BFBFBF",
"$.	c #0F0F0F",
"%.	c #1C1C1C",
"&.	c #191919",
"*.	c #212121",
"=.	c #646464",
"-.	c #CBCBCB",
";.	c #BEBEBE",
">.	c #636363",
",.	c #606060",
"'.	c #4A4A4A",
").	c #3A3A3A",
"!.	c #CACACA",
"~.	c #BDBDBD",
"{.	c #313131",
"].	c #AAAAAA",
"^.	c #686868",
"/.	c #707070",
"(.	c #BCBCBC",
"_.	c #959595",
":.	c #696969",
"<.	c #BBBBBB",
"[.	c #A0A0A0",
"}.	c #1D1D1D",
"|.	c #B9B9B9",
"1.	c #6A6A6A",
"2.	c #444444",
"3.	c #0E0E0E",
"4.	c #BABABA",
"5.	c #B8B8B8",
"6.	c #6B6B6B",
"7.	c #4B4B4B",
"8.	c #4E4E4E",
"9.	c #363636",
"0.	c #B7B7B7",
"a.	c #AFAFAF",
"b.	c #9B9B9B",
"c.	c #ABABAB",
"d.	c #B6B6B6",
"e.	c #5F5F5F",
"f.	c #565656",
"g.	c #6F6F6F",
"h.	c #E5E5E5",
"i.	c #E9E9E9",
"j.	c #EBEBEB",
"k.	c #EDEDED",
"l.	c #ECECEC",
"m.	c #EAEAEA",
"n.	c #E7E7E7",
"o.	c #6D6D6D",
"p.	c #828282",
"q.	c #868686",
"r.	c #8A8A8A",
"s.	c #8E8E8E",
"t.	c #919191",
"u.	c #949494",
"v.	c #969696",
"w.	c #989898",
"x.	c #5A5A5A",
"      . . . . . . . . . . . . . . . . . . . . . . . . . .       ",
"    + @ # $ $ % & * = - ; > , ' ) ' > ! ; - * ~ & % $ { @ +     ",
"  . ] ^ { ] ] ] ] ] ] ] ] ] ] ] ] ] ] ] ] ] ] ] ] ] ] { ^ ] .   ",
". @ ^ ] ] ] ] / ( ( ( ( ( ( ( ( ( ( ( ( ( ( ( ( / ] ] ] ] ^ _ . ",
": < { ] ] ] [ } | | | | | | | | | | | | | | | | } [ ] ] ] { < : ",
"1 ^ ] ] ] 2 3 4 4 5 5 5 5 5 5 5 5 5 5 5 5 5 5 5 6 7 2 ] ] ] ^ 1 ",
"1 ^ ] ] 8 9 0 a b c c c c c c c c c c c c c c c c b d 8 ] ] ^ 1 ",
"1 ^ ] ] e f g h c c c c c c c c c c c c c c c c c c h i ] ] ^ 1 ",
"1 ^ ] ] i j k c c c c c c c c c c c c c c c c c c c c l ] ] ^ 1 ",
"1 m n n i j k c c c c c c c h h h h c c c c c c c c c o n n m 1 ",
"1 m n n i j k c c c c c c b d 9 9 d b c c c c c c c c o n n m 1 ",
"1 m p p q j k h h b b b h r s t t s r h b b b h h h h o p p m 1 ",
"u m p p q j k h b d 9 d b v w x x w v b d 9 d b h h h o p p m u ",
"u y z z A j B } C D E F | G @ H H @ G | F E D C } b b o z z y u ",
"u I J J A j B K L M N O 3 j P N N P j 3 O N M L K } b Q J J I u ",
"u R S S T j U d V W W W X w W W W W w X W W W V d r } Q S S R u ",
"u < Y Y T j U d Z ` ) ) ) ) ) ) ) ) ) ) ) ) ` Z d K }  .Y Y < u ",
"u < / / ..j a 9 | +.; ' ' ' ' ' ' ' ' ' ' ; +.| 9 v r  ./ / < u ",
"..@.#.#...j $.%.&.*.I , , R =.d d =.R , , I *.&.%.L K [ #.#.@...",
"..-.;.;.u j 7 >.,.V > > ; '.C C C C '.; > > V ,.>.).d [ ;.;.-...",
"..!.~.~.u j {.` ` ` ` ` ].F | | | | F ].` ` ` ` ` ^.v /.~.~.!...",
"..{ (.(...f {.; ; ; ; ; _.7 *.G G *.7 _.; ; ; ; ; :.v 1 (.(.{ ..",
"..{ <.<.[.9 {.- - - - - (.k 7 }.}.7 k |.- - - - - 1.} [.<.<.{ ..",
"..] |.|.|.^.}.L D 2.= = = : 3.U U 3.: = = = 2.D L d ^.|.|.|.] ..",
"1 S 4.5.5.5.6.} K d 7.8.8.8.2.9.9.2.8.8.8.7.d K b 6.5.5.5.4.S 1 ",
" .8 p 0.0.0.0.a.b.b.b.b.b.b.b.b.b.b.b.b.b.b.b.b.a.0.0.0.0.p c. .",
",.T (.p |.d.d.d.d.d.d.d.d.d.d.d.d.d.d.d.d.d.d.d.d.d.d.|.p (.T e.",
"f.g.+ c.~.n !.< ^ * ! W h.i.j.k.k.l.m.n.H ' ` ~ m < { / c.+ o.f.",
"  f.[ u T T T T T T T T T T T T T T T T T T T T T T T ..: 1.f.  ",
"    E 1.: q p.q.r.s.t.u.v.w.w.w.v.u.t.s.r.q.p.q u l [ 6.>.x.    ",
"      f.f.f.f.f.f.f.f.f.f.f.f.f.f.f.f.f.f.f.f.f.f.f.f.f.f.      ",
"                                                                "};
