/* XPM */
static const char* refresh_xpm[] = {
"16 16 137 2",
"  	c None",
". 	c #83C910",
"+ 	c #A3E409",
"@ 	c #AFED07",
"# 	c #AAEA08",
"$ 	c #96DC0D",
"% 	c #7AC513",
"& 	c #56A419",
"* 	c #ABE907",
"= 	c #B7F305",
"- 	c #ADED07",
"; 	c #A3E70A",
"> 	c #99E10D",
", 	c #8FDB10",
"' 	c #85D512",
") 	c #74C816",
"! 	c #469A1D",
"~ 	c #5CA918",
"{ 	c #BFF703",
"] 	c #B6F205",
"^ 	c #A3E40A",
"/ 	c #97DA0D",
"( 	c #93D70E",
"_ 	c #91D60E",
": 	c #8FD50F",
"< 	c #85D211",
"[ 	c #72CA17",
"} 	c #66C21A",
"| 	c #389422",
"1 	c #367818",
"2 	c #BEF703",
"3 	c #B2EF06",
"4 	c #93D80E",
"5 	c #8DD40F",
"6 	c #92D519",
"7 	c #C4E882",
"8 	c #A9DE4A",
"9 	c #86D111",
"0 	c #63BF1B",
"a 	c #52B61F",
"b 	c #1B681F",
"c 	c #9EDF0B",
"d 	c #B5F105",
"e 	c #8CD610",
"f 	c #85D112",
"g 	c #9ADA33",
"h 	c #FBFEF3",
"i 	c #FEFEFE",
"j 	c #CAEB97",
"k 	c #7ECD14",
"l 	c #4CB221",
"m 	c #36A126",
"n 	c #96DF0D",
"o 	c #7CCE14",
"p 	c #91D639",
"q 	c #A2DC56",
"r 	c #7CCE13",
"s 	c #8AD619",
"t 	c #CDEE98",
"u 	c #A0DB54",
"v 	c #5CBB1C",
"w 	c #35A527",
"x 	c #7AD015",
"y 	c #8BD340",
"z 	c #F4FBEC",
"A 	c #FEFEFD",
"B 	c #ABE075",
"C 	c #71CA17",
"D 	c #94D74E",
"E 	c #B5E481",
"F 	c #F7FCF2",
"G 	c #CCECAB",
"H 	c #BFE794",
"I 	c #72C82E",
"J 	c #2B9F2A",
"K 	c #7ACD36",
"L 	c #F2FAEB",
"M 	c #FFFFFF",
"N 	c #9BD96A",
"O 	c #A9DE81",
"P 	c #FAFDF8",
"Q 	c #7CCD43",
"R 	c #21992D",
"S 	c #72CA3C",
"T 	c #CCE9BF",
"U 	c #D0ECC2",
"V 	c #F5FBF1",
"W 	c #BBE3A9",
"X 	c #8ED36C",
"Y 	c #56BF20",
"Z 	c #B4E19F",
"` 	c #FAFDF9",
" .	c #86CF61",
"..	c #50BC21",
"+.	c #179330",
"@.	c #5DC41E",
"#.	c #46BA25",
"$.	c #85D071",
"%.	c #93D67E",
"&.	c #46B925",
"*.	c #94D388",
"=.	c #75C862",
"-.	c #35AC29",
";.	c #0E8D32",
">.	c #64A10E",
",.	c #6FCB18",
"'.	c #36B52A",
").	c #36B42D",
"!.	c #C2E4C4",
"~.	c #DBF1D7",
"{.	c #4BBC40",
"].	c #35B42A",
"^.	c #34B42A",
"/.	c #159431",
"(.	c #046728",
"_.	c #6CC116",
":.	c #4DBB22",
"<.	c #23AE30",
"[.	c #24AB34",
"}.	c #76C488",
"|.	c #A9D7B8",
"1.	c #32B241",
"2.	c #169A31",
"3.	c #048233",
"4.	c #58B31B",
"5.	c #42B325",
"6.	c #1CA932",
"7.	c #10A736",
"8.	c #12A335",
"9.	c #0F9433",
"0.	c #048032",
"a.	c #3FA924",
"b.	c #2DA42A",
"c.	c #1E9F2F",
"d.	c #179B31",
"e.	c #149531",
"f.	c #0E8C32",
"                                ",
"          . + @ # $ %           ",
"      & * = - ; > , ' ) !       ",
"    ~ { ] ^ / ( _ : < [ } |     ",
"  1 2 3 4 5 5 6 7 8 5 9 0 a b   ",
"  c d e f f f g h i j f k l m   ",
"  = n o p q o r s t i u o v w   ",
"  - x y z A B C D E F G H I J   ",
"  ; K L M M A N O M i i P Q R   ",
"  > S T U V W X Y Z M `  ...+.  ",
"  , @.#.$.M %.#.#.&.*.=.#.-.;.  ",
"  >.,.'.).!.i ~.{.].].].^./.(.  ",
"    _.:.<.[.}.|.1.<.<.<.2.3.    ",
"      4.5.6.7.7.7.7.8.9.0.      ",
"          a.b.c.d.e.f.          ",
"                                "};
